<mxfile host="Electron" agent="Mozilla/5.0 (Windows NT 10.0; Win64; x64) AppleWebKit/537.36 (KHTML, like Gecko) draw.io/24.7.17 Chrome/128.0.6613.36 Electron/32.0.1 Safari/537.36" version="24.7.17">
  <diagram name="Page-1" id="0lKIAKl4kXe2pacihOPi">
    <mxGraphModel dx="493" dy="292" grid="1" gridSize="10" guides="1" tooltips="1" connect="1" arrows="1" fold="1" page="1" pageScale="1" pageWidth="827" pageHeight="1169" math="0" shadow="0">
      <root>
        <mxCell id="0" />
        <mxCell id="1" parent="0" />
        <mxCell id="peA7AIF2Cxk1-v0J1Cm_-1" value="(&lt;u&gt;UserId&lt;/u&gt;, Username,&lt;span style=&quot;background-color: initial;&quot;&gt;&amp;nbsp;Password, Email)&lt;/span&gt;" style="rounded=1;whiteSpace=wrap;html=1;" parent="1" vertex="1">
          <mxGeometry x="60" y="90" width="220" height="30" as="geometry" />
        </mxCell>
        <mxCell id="peA7AIF2Cxk1-v0J1Cm_-2" value="User" style="text;html=1;align=center;verticalAlign=middle;resizable=0;points=[];autosize=1;strokeColor=none;fillColor=none;" parent="1" vertex="1">
          <mxGeometry x="50" y="60" width="50" height="30" as="geometry" />
        </mxCell>
        <mxCell id="peA7AIF2Cxk1-v0J1Cm_-6" style="edgeStyle=orthogonalEdgeStyle;rounded=0;orthogonalLoop=1;jettySize=auto;html=1;entryX=1;entryY=0.5;entryDx=0;entryDy=0;fillColor=#dae8fc;strokeColor=#12dfff;" parent="1" source="peA7AIF2Cxk1-v0J1Cm_-3" target="peA7AIF2Cxk1-v0J1Cm_-1" edge="1">
          <mxGeometry relative="1" as="geometry" />
        </mxCell>
        <mxCell id="peA7AIF2Cxk1-v0J1Cm_-3" value="(&lt;u&gt;FolderId&lt;/u&gt;&lt;span style=&quot;background-color: initial;&quot;&gt;, &lt;font color=&quot;#12dfff&quot;&gt;Owner&lt;/font&gt;, Name, Date, &lt;font color=&quot;#ff0a0a&quot;&gt;ParentFolder&lt;/font&gt;&lt;/span&gt;&lt;span style=&quot;background-color: initial;&quot;&gt;)&lt;/span&gt;" style="rounded=1;whiteSpace=wrap;html=1;" parent="1" vertex="1">
          <mxGeometry x="360" y="90" width="260" height="30" as="geometry" />
        </mxCell>
        <mxCell id="peA7AIF2Cxk1-v0J1Cm_-4" value="Folder" style="text;html=1;align=center;verticalAlign=middle;resizable=0;points=[];autosize=1;strokeColor=none;fillColor=none;" parent="1" vertex="1">
          <mxGeometry x="354" y="60" width="60" height="30" as="geometry" />
        </mxCell>
        <mxCell id="peA7AIF2Cxk1-v0J1Cm_-7" style="edgeStyle=orthogonalEdgeStyle;rounded=0;orthogonalLoop=1;jettySize=auto;html=1;entryX=0.75;entryY=0;entryDx=0;entryDy=0;strokeColor=#b85450;fillColor=#f8cecc;" parent="1" source="peA7AIF2Cxk1-v0J1Cm_-3" target="peA7AIF2Cxk1-v0J1Cm_-3" edge="1">
          <mxGeometry relative="1" as="geometry">
            <Array as="points">
              <mxPoint x="490" y="60" />
              <mxPoint x="555" y="60" />
            </Array>
          </mxGeometry>
        </mxCell>
        <mxCell id="peA7AIF2Cxk1-v0J1Cm_-8" value="(&lt;u&gt;DocumentId&lt;/u&gt;, &lt;font color=&quot;#12dfff&quot;&gt;Owner&lt;/font&gt;,&lt;span style=&quot;background-color: initial;&quot;&gt;&amp;nbsp;Name, Date, Type, &lt;font color=&quot;#ff0a0a&quot;&gt;FolderLocation&lt;/font&gt;)&lt;/span&gt;" style="rounded=1;whiteSpace=wrap;html=1;" parent="1" vertex="1">
          <mxGeometry x="220" y="220" width="320" height="30" as="geometry" />
        </mxCell>
        <mxCell id="peA7AIF2Cxk1-v0J1Cm_-9" style="edgeStyle=orthogonalEdgeStyle;rounded=0;orthogonalLoop=1;jettySize=auto;html=1;entryX=0.5;entryY=1;entryDx=0;entryDy=0;fillColor=#dae8fc;strokeColor=#12dfff;" parent="1" target="peA7AIF2Cxk1-v0J1Cm_-1" edge="1">
          <mxGeometry relative="1" as="geometry">
            <mxPoint x="220" y="234.70999999999998" as="sourcePoint" />
            <mxPoint x="140" y="234.70999999999998" as="targetPoint" />
            <Array as="points">
              <mxPoint x="170" y="235" />
            </Array>
          </mxGeometry>
        </mxCell>
        <mxCell id="peA7AIF2Cxk1-v0J1Cm_-10" style="edgeStyle=orthogonalEdgeStyle;rounded=0;orthogonalLoop=1;jettySize=auto;html=1;entryX=0.5;entryY=1;entryDx=0;entryDy=0;strokeColor=#b85450;fillColor=#f8cecc;" parent="1" target="peA7AIF2Cxk1-v0J1Cm_-3" edge="1">
          <mxGeometry relative="1" as="geometry">
            <mxPoint x="400" y="220" as="sourcePoint" />
            <mxPoint x="465" y="220" as="targetPoint" />
            <Array as="points">
              <mxPoint x="400" y="190" />
              <mxPoint x="490" y="190" />
            </Array>
          </mxGeometry>
        </mxCell>
      </root>
    </mxGraphModel>
  </diagram>
</mxfile>
